<?xml version="1.0" encoding="UTF-8" standalone="no"?>
<!DOCTYPE svg PUBLIC "-//W3C//DTD SVG 1.1//EN"
 "http://www.w3.org/Graphics/SVG/1.1/DTD/svg11.dtd">
<!-- Generated by graphviz version 10.0.1 (20240210.2158)
 -->
<!-- Title: G Pages: 1 -->
<svg width="1635pt" height="125pt"
 viewBox="0.00 0.00 1635.22 125.00" xmlns="http://www.w3.org/2000/svg" xmlns:xlink="http://www.w3.org/1999/xlink">
<g id="graph0" class="graph" transform="scale(1 1) rotate(0) translate(4 121)">
<title>G</title>
<polygon fill="white" stroke="none" points="-4,4 -4,-121 1631.22,-121 1631.22,4 -4,4"/>
<!-- &#45;205631968 -->
<g id="node1" class="node">
<title>&#45;205631968</title>
<ellipse fill="none" stroke="black" cx="647.63" cy="-18" rx="143.88" ry="18"/>
<text text-anchor="middle" x="647.63" y="-12.57" font-family="Times New Roman,serif" font-size="14.00">&lt;data&gt; 1.000000 | &lt;grad&gt; 1.000000</text>
</g>
<!-- +@@@@ -->
<g id="node12" class="node">
<title>+@@@@</title>
<ellipse fill="none" stroke="black" cx="854.51" cy="-45" rx="27" ry="18"/>
<text text-anchor="middle" x="854.51" y="-39.58" font-family="Times New Roman,serif" font-size="14.00">+</text>
</g>
<!-- &#45;205631968&#45;&gt;+@@@@ -->
<g id="edge7" class="edge">
<title>&#45;205631968&#45;&gt;+@@@@</title>
<path fill="none" stroke="black" d="M748.67,-31.18C772.89,-34.38 797.3,-37.59 816.46,-40.12"/>
<polygon fill="black" stroke="black" points="815.79,-43.56 826.16,-41.4 816.71,-36.62 815.79,-43.56"/>
</g>
<!-- c -->
<g id="node2" class="node">
<title>c</title>
<ellipse fill="none" stroke="black" cx="440.75" cy="-18" rx="27" ry="18"/>
<text text-anchor="middle" x="440.75" y="-12.57" font-family="Times New Roman,serif" font-size="14.00">c</text>
</g>
<!-- c&#45;&gt;&#45;205631968 -->
<g id="edge1" class="edge">
<title>c&#45;&gt;&#45;205631968</title>
<path fill="none" stroke="black" d="M468.12,-18C475.11,-18 483.18,-18 491.96,-18"/>
<polygon fill="black" stroke="black" points="491.9,-21.5 501.9,-18 491.9,-14.5 491.9,-21.5"/>
</g>
<!-- &#45;205631520 -->
<g id="node3" class="node">
<title>&#45;205631520</title>
<ellipse fill="none" stroke="black" cx="1483.35" cy="-45" rx="143.88" ry="18"/>
<text text-anchor="middle" x="1483.35" y="-39.58" font-family="Times New Roman,serif" font-size="14.00">&lt;data&gt; 3.000000 | &lt;grad&gt; 1.000000</text>
</g>
<!-- ReLu -->
<g id="node4" class="node">
<title>ReLu</title>
<ellipse fill="none" stroke="black" cx="1272.37" cy="-45" rx="31.1" ry="18"/>
<text text-anchor="middle" x="1272.37" y="-39.58" font-family="Times New Roman,serif" font-size="14.00">ReLu</text>
</g>
<!-- ReLu&#45;&gt;&#45;205631520 -->
<g id="edge2" class="edge">
<title>ReLu&#45;&gt;&#45;205631520</title>
<path fill="none" stroke="black" d="M1303.75,-45C1310.92,-45 1319.04,-45 1327.77,-45"/>
<polygon fill="black" stroke="black" points="1327.62,-48.5 1337.62,-45 1327.62,-41.5 1327.62,-48.5"/>
</g>
<!-- &#45;205631072 -->
<g id="node5" class="node">
<title>&#45;205631072</title>
<ellipse fill="none" stroke="black" cx="647.63" cy="-72" rx="143.88" ry="18"/>
<text text-anchor="middle" x="647.63" y="-66.58" font-family="Times New Roman,serif" font-size="14.00">&lt;data&gt; 2.000000 | &lt;grad&gt; 1.000000</text>
</g>
<!-- &#45;205631072&#45;&gt;+@@@@ -->
<g id="edge8" class="edge">
<title>&#45;205631072&#45;&gt;+@@@@</title>
<path fill="none" stroke="black" d="M748.67,-58.82C772.89,-55.62 797.3,-52.41 816.46,-49.88"/>
<polygon fill="black" stroke="black" points="816.71,-53.38 826.16,-48.6 815.79,-46.44 816.71,-53.38"/>
</g>
<!-- *@ -->
<g id="node6" class="node">
<title>*@</title>
<ellipse fill="none" stroke="black" cx="440.75" cy="-72" rx="27" ry="18"/>
<text text-anchor="middle" x="440.75" y="-66.58" font-family="Times New Roman,serif" font-size="14.00">*</text>
</g>
<!-- *@&#45;&gt;&#45;205631072 -->
<g id="edge3" class="edge">
<title>*@&#45;&gt;&#45;205631072</title>
<path fill="none" stroke="black" d="M468.12,-72C475.11,-72 483.18,-72 491.96,-72"/>
<polygon fill="black" stroke="black" points="491.9,-75.5 501.9,-72 491.9,-68.5 491.9,-75.5"/>
</g>
<!-- &#45;205628384 -->
<g id="node7" class="node">
<title>&#45;205628384</title>
<ellipse fill="none" stroke="black" cx="233.88" cy="-99" rx="143.88" ry="18"/>
<text text-anchor="middle" x="233.88" y="-93.58" font-family="Times New Roman,serif" font-size="14.00">&lt;data&gt; 1.000000 | &lt;grad&gt; 2.000000</text>
</g>
<!-- &#45;205628384&#45;&gt;*@ -->
<g id="edge9" class="edge">
<title>&#45;205628384&#45;&gt;*@</title>
<path fill="none" stroke="black" d="M334.91,-85.82C359.14,-82.62 383.55,-79.41 402.71,-76.88"/>
<polygon fill="black" stroke="black" points="402.95,-80.38 412.41,-75.6 402.04,-73.44 402.95,-80.38"/>
</g>
<!-- c@@ -->
<g id="node8" class="node">
<title>c@@</title>
<ellipse fill="none" stroke="black" cx="27" cy="-99" rx="27" ry="18"/>
<text text-anchor="middle" x="27" y="-93.58" font-family="Times New Roman,serif" font-size="14.00">c</text>
</g>
<!-- c@@&#45;&gt;&#45;205628384 -->
<g id="edge4" class="edge">
<title>c@@&#45;&gt;&#45;205628384</title>
<path fill="none" stroke="black" d="M54.36,-99C61.36,-99 69.43,-99 78.2,-99"/>
<polygon fill="black" stroke="black" points="78.14,-102.5 88.14,-99 78.14,-95.5 78.14,-102.5"/>
</g>
<!-- &#45;205627936 -->
<g id="node9" class="node">
<title>&#45;205627936</title>
<ellipse fill="none" stroke="black" cx="233.88" cy="-45" rx="143.88" ry="18"/>
<text text-anchor="middle" x="233.88" y="-39.58" font-family="Times New Roman,serif" font-size="14.00">&lt;data&gt; 2.000000 | &lt;grad&gt; 1.000000</text>
</g>
<!-- &#45;205627936&#45;&gt;*@ -->
<g id="edge10" class="edge">
<title>&#45;205627936&#45;&gt;*@</title>
<path fill="none" stroke="black" d="M334.91,-58.18C359.14,-61.38 383.55,-64.59 402.71,-67.12"/>
<polygon fill="black" stroke="black" points="402.04,-70.56 412.41,-68.4 402.95,-63.62 402.04,-70.56"/>
</g>
<!-- c@@@ -->
<g id="node10" class="node">
<title>c@@@</title>
<ellipse fill="none" stroke="black" cx="27" cy="-45" rx="27" ry="18"/>
<text text-anchor="middle" x="27" y="-39.58" font-family="Times New Roman,serif" font-size="14.00">c</text>
</g>
<!-- c@@@&#45;&gt;&#45;205627936 -->
<g id="edge5" class="edge">
<title>c@@@&#45;&gt;&#45;205627936</title>
<path fill="none" stroke="black" d="M54.36,-45C61.36,-45 69.43,-45 78.2,-45"/>
<polygon fill="black" stroke="black" points="78.14,-48.5 88.14,-45 78.14,-41.5 78.14,-48.5"/>
</g>
<!-- &#45;205626592 -->
<g id="node11" class="node">
<title>&#45;205626592</title>
<ellipse fill="none" stroke="black" cx="1061.39" cy="-45" rx="143.88" ry="18"/>
<text text-anchor="middle" x="1061.39" y="-39.58" font-family="Times New Roman,serif" font-size="14.00">&lt;data&gt; 3.000000 | &lt;grad&gt; 1.000000</text>
</g>
<!-- &#45;205626592&#45;&gt;ReLu -->
<g id="edge11" class="edge">
<title>&#45;205626592&#45;&gt;ReLu</title>
<path fill="none" stroke="black" d="M1205.53,-45C1213.97,-45 1222.01,-45 1229.4,-45"/>
<polygon fill="black" stroke="black" points="1229.27,-48.5 1239.27,-45 1229.27,-41.5 1229.27,-48.5"/>
</g>
<!-- +@@@@&#45;&gt;&#45;205626592 -->
<g id="edge6" class="edge">
<title>+@@@@&#45;&gt;&#45;205626592</title>
<path fill="none" stroke="black" d="M881.87,-45C888.86,-45 896.94,-45 905.71,-45"/>
<polygon fill="black" stroke="black" points="905.65,-48.5 915.65,-45 905.65,-41.5 905.65,-48.5"/>
</g>
</g>
</svg>
