<?xml version="1.0" encoding="UTF-8" standalone="no"?>
<!DOCTYPE svg PUBLIC "-//W3C//DTD SVG 1.1//EN"
 "http://www.w3.org/Graphics/SVG/1.1/DTD/svg11.dtd">
<!-- Generated by graphviz version 10.0.1 (20240210.2158)
 -->
<!-- Title: G Pages: 1 -->
<svg width="2493pt" height="206pt"
 viewBox="0.00 0.00 2492.67 206.00" xmlns="http://www.w3.org/2000/svg" xmlns:xlink="http://www.w3.org/1999/xlink">
<g id="graph0" class="graph" transform="scale(1 1) rotate(0) translate(4 202)">
<title>G</title>
<polygon fill="white" stroke="none" points="-4,4 -4,-202 2488.67,-202 2488.67,4 -4,4"/>
<!-- &#45;205639584 -->
<g id="node1" class="node">
<title>&#45;205639584</title>
<ellipse fill="none" stroke="black" cx="1496.1" cy="-45" rx="143.88" ry="18"/>
<text text-anchor="middle" x="1496.1" y="-39.58" font-family="Times New Roman,serif" font-size="14.00">&lt;data&gt; 0.000000 | &lt;grad&gt; 0.000000</text>
</g>
<!-- +@@@@@@@@@@@@@@@@ -->
<g id="node24" class="node">
<title>+@@@@@@@@@@@@@@@@</title>
<ellipse fill="none" stroke="black" cx="1705.97" cy="-72" rx="27" ry="18"/>
<text text-anchor="middle" x="1705.97" y="-66.58" font-family="Times New Roman,serif" font-size="14.00">+</text>
</g>
<!-- &#45;205639584&#45;&gt;+@@@@@@@@@@@@@@@@ -->
<g id="edge13" class="edge">
<title>&#45;205639584&#45;&gt;+@@@@@@@@@@@@@@@@</title>
<path fill="none" stroke="black" d="M1597.99,-58.1C1622.95,-61.35 1648.14,-64.62 1667.81,-67.17"/>
<polygon fill="black" stroke="black" points="1667.12,-70.61 1677.49,-68.43 1668.02,-63.67 1667.12,-70.61"/>
</g>
<!-- c@@@@@ -->
<g id="node2" class="node">
<title>c@@@@@</title>
<ellipse fill="none" stroke="black" cx="1286.23" cy="-45" rx="27" ry="18"/>
<text text-anchor="middle" x="1286.23" y="-39.58" font-family="Times New Roman,serif" font-size="14.00">c</text>
</g>
<!-- c@@@@@&#45;&gt;&#45;205639584 -->
<g id="edge1" class="edge">
<title>c@@@@@&#45;&gt;&#45;205639584</title>
<path fill="none" stroke="black" d="M1313.55,-45C1321.42,-45 1330.65,-45 1340.73,-45"/>
<polygon fill="black" stroke="black" points="1340.45,-48.5 1350.45,-45 1340.45,-41.5 1340.45,-48.5"/>
</g>
<!-- &#45;205639360 -->
<g id="node3" class="node">
<title>&#45;205639360</title>
<ellipse fill="none" stroke="black" cx="656.61" cy="-72" rx="146.87" ry="18"/>
<text text-anchor="middle" x="656.61" y="-66.58" font-family="Times New Roman,serif" font-size="14.00">&lt;data&gt; &#45;2.000000 | &lt;grad&gt; 0.000000</text>
</g>
<!-- *@@@@@@@@@@ -->
<g id="node12" class="node">
<title>*@@@@@@@@@@</title>
<ellipse fill="none" stroke="black" cx="866.48" cy="-72" rx="27" ry="18"/>
<text text-anchor="middle" x="866.48" y="-66.58" font-family="Times New Roman,serif" font-size="14.00">*</text>
</g>
<!-- &#45;205639360&#45;&gt;*@@@@@@@@@@ -->
<g id="edge14" class="edge">
<title>&#45;205639360&#45;&gt;*@@@@@@@@@@</title>
<path fill="none" stroke="black" d="M803.96,-72C812.43,-72 820.44,-72 827.72,-72"/>
<polygon fill="black" stroke="black" points="827.7,-75.5 837.7,-72 827.7,-68.5 827.7,-75.5"/>
</g>
<!-- c@@@@@@ -->
<g id="node4" class="node">
<title>c@@@@@@</title>
<ellipse fill="none" stroke="black" cx="446.74" cy="-72" rx="27" ry="18"/>
<text text-anchor="middle" x="446.74" y="-66.58" font-family="Times New Roman,serif" font-size="14.00">c</text>
</g>
<!-- c@@@@@@&#45;&gt;&#45;205639360 -->
<g id="edge2" class="edge">
<title>c@@@@@@&#45;&gt;&#45;205639360</title>
<path fill="none" stroke="black" d="M474.07,-72C481.06,-72 489.14,-72 497.92,-72"/>
<polygon fill="black" stroke="black" points="497.89,-75.5 507.89,-72 497.89,-68.5 497.89,-75.5"/>
</g>
<!-- &#45;205637344 -->
<g id="node5" class="node">
<title>&#45;205637344</title>
<ellipse fill="none" stroke="black" cx="1076.36" cy="-126" rx="146.87" ry="18"/>
<text text-anchor="middle" x="1076.36" y="-120.58" font-family="Times New Roman,serif" font-size="14.00">&lt;data&gt; &#45;0.533523 | &lt;grad&gt; 0.000000</text>
</g>
<!-- +@@@@@@@@ -->
<g id="node8" class="node">
<title>+@@@@@@@@</title>
<ellipse fill="none" stroke="black" cx="1286.23" cy="-99" rx="27" ry="18"/>
<text text-anchor="middle" x="1286.23" y="-93.58" font-family="Times New Roman,serif" font-size="14.00">+</text>
</g>
<!-- &#45;205637344&#45;&gt;+@@@@@@@@ -->
<g id="edge15" class="edge">
<title>&#45;205637344&#45;&gt;+@@@@@@@@</title>
<path fill="none" stroke="black" d="M1179.16,-112.78C1203.86,-109.57 1228.73,-106.34 1248.17,-103.81"/>
<polygon fill="black" stroke="black" points="1248.55,-107.29 1258.02,-102.53 1247.65,-100.35 1248.55,-107.29"/>
</g>
<!-- +@@@@@@@ -->
<g id="node6" class="node">
<title>+@@@@@@@</title>
<ellipse fill="none" stroke="black" cx="866.48" cy="-126" rx="27" ry="18"/>
<text text-anchor="middle" x="866.48" y="-120.58" font-family="Times New Roman,serif" font-size="14.00">+</text>
</g>
<!-- +@@@@@@@&#45;&gt;&#45;205637344 -->
<g id="edge3" class="edge">
<title>+@@@@@@@&#45;&gt;&#45;205637344</title>
<path fill="none" stroke="black" d="M893.81,-126C900.8,-126 908.88,-126 917.67,-126"/>
<polygon fill="black" stroke="black" points="917.63,-129.5 927.63,-126 917.63,-122.5 917.63,-129.5"/>
</g>
<!-- &#45;205637120 -->
<g id="node7" class="node">
<title>&#45;205637120</title>
<ellipse fill="none" stroke="black" cx="1496.1" cy="-99" rx="146.87" ry="18"/>
<text text-anchor="middle" x="1496.1" y="-93.58" font-family="Times New Roman,serif" font-size="14.00">&lt;data&gt; &#45;1.292906 | &lt;grad&gt; 0.000000</text>
</g>
<!-- &#45;205637120&#45;&gt;+@@@@@@@@@@@@@@@@ -->
<g id="edge16" class="edge">
<title>&#45;205637120&#45;&gt;+@@@@@@@@@@@@@@@@</title>
<path fill="none" stroke="black" d="M1598.9,-85.78C1623.61,-82.57 1648.47,-79.34 1667.91,-76.81"/>
<polygon fill="black" stroke="black" points="1668.3,-80.29 1677.76,-75.53 1667.4,-73.35 1668.3,-80.29"/>
</g>
<!-- +@@@@@@@@&#45;&gt;&#45;205637120 -->
<g id="edge4" class="edge">
<title>+@@@@@@@@&#45;&gt;&#45;205637120</title>
<path fill="none" stroke="black" d="M1313.55,-99C1320.54,-99 1328.62,-99 1337.41,-99"/>
<polygon fill="black" stroke="black" points="1337.37,-102.5 1347.37,-99 1337.37,-95.5 1337.37,-102.5"/>
</g>
<!-- &#45;205636896 -->
<g id="node9" class="node">
<title>&#45;205636896</title>
<ellipse fill="none" stroke="black" cx="656.61" cy="-180" rx="143.88" ry="18"/>
<text text-anchor="middle" x="656.61" y="-174.57" font-family="Times New Roman,serif" font-size="14.00">&lt;data&gt; 0.000000 | &lt;grad&gt; 0.000000</text>
</g>
<!-- &#45;205636896&#45;&gt;+@@@@@@@ -->
<g id="edge17" class="edge">
<title>&#45;205636896&#45;&gt;+@@@@@@@</title>
<path fill="none" stroke="black" d="M750.59,-166.07C768.33,-162.49 786.61,-158.16 803.48,-153 813.6,-149.91 824.27,-145.65 833.86,-141.42"/>
<polygon fill="black" stroke="black" points="835.11,-144.7 842.76,-137.36 832.21,-138.33 835.11,-144.7"/>
</g>
<!-- c@@@@@@@@@ -->
<g id="node10" class="node">
<title>c@@@@@@@@@</title>
<ellipse fill="none" stroke="black" cx="446.74" cy="-180" rx="27" ry="18"/>
<text text-anchor="middle" x="446.74" y="-174.57" font-family="Times New Roman,serif" font-size="14.00">c</text>
</g>
<!-- c@@@@@@@@@&#45;&gt;&#45;205636896 -->
<g id="edge5" class="edge">
<title>c@@@@@@@@@&#45;&gt;&#45;205636896</title>
<path fill="none" stroke="black" d="M474.07,-180C481.93,-180 491.17,-180 501.24,-180"/>
<polygon fill="black" stroke="black" points="500.96,-183.5 510.96,-180 500.96,-176.5 500.96,-183.5"/>
</g>
<!-- &#45;205636448 -->
<g id="node11" class="node">
<title>&#45;205636448</title>
<ellipse fill="none" stroke="black" cx="1076.36" cy="-72" rx="146.87" ry="18"/>
<text text-anchor="middle" x="1076.36" y="-66.58" font-family="Times New Roman,serif" font-size="14.00">&lt;data&gt; &#45;0.759383 | &lt;grad&gt; 0.000000</text>
</g>
<!-- &#45;205636448&#45;&gt;+@@@@@@@@ -->
<g id="edge18" class="edge">
<title>&#45;205636448&#45;&gt;+@@@@@@@@</title>
<path fill="none" stroke="black" d="M1179.16,-85.22C1203.86,-88.43 1228.73,-91.66 1248.17,-94.19"/>
<polygon fill="black" stroke="black" points="1247.65,-97.65 1258.02,-95.47 1248.55,-90.71 1247.65,-97.65"/>
</g>
<!-- *@@@@@@@@@@&#45;&gt;&#45;205636448 -->
<g id="edge6" class="edge">
<title>*@@@@@@@@@@&#45;&gt;&#45;205636448</title>
<path fill="none" stroke="black" d="M893.81,-72C900.8,-72 908.88,-72 917.67,-72"/>
<polygon fill="black" stroke="black" points="917.63,-75.5 927.63,-72 917.63,-68.5 917.63,-75.5"/>
</g>
<!-- &#45;205634880 -->
<g id="node13" class="node">
<title>&#45;205634880</title>
<ellipse fill="none" stroke="black" cx="236.87" cy="-153" rx="143.88" ry="18"/>
<text text-anchor="middle" x="236.87" y="-147.57" font-family="Times New Roman,serif" font-size="14.00">&lt;data&gt; 1.000000 | &lt;grad&gt; 0.000000</text>
</g>
<!-- *@@@@@@@@@@@@@@ -->
<g id="node20" class="node">
<title>*@@@@@@@@@@@@@@</title>
<ellipse fill="none" stroke="black" cx="446.74" cy="-126" rx="27" ry="18"/>
<text text-anchor="middle" x="446.74" y="-120.58" font-family="Times New Roman,serif" font-size="14.00">*</text>
</g>
<!-- &#45;205634880&#45;&gt;*@@@@@@@@@@@@@@ -->
<g id="edge19" class="edge">
<title>&#45;205634880&#45;&gt;*@@@@@@@@@@@@@@</title>
<path fill="none" stroke="black" d="M338.76,-139.9C363.72,-136.65 388.92,-133.38 408.58,-130.83"/>
<polygon fill="black" stroke="black" points="408.8,-134.33 418.26,-129.57 407.9,-127.39 408.8,-134.33"/>
</g>
<!-- c@@@@@@@@@@@ -->
<g id="node14" class="node">
<title>c@@@@@@@@@@@</title>
<ellipse fill="none" stroke="black" cx="27" cy="-153" rx="27" ry="18"/>
<text text-anchor="middle" x="27" y="-147.57" font-family="Times New Roman,serif" font-size="14.00">c</text>
</g>
<!-- c@@@@@@@@@@@&#45;&gt;&#45;205634880 -->
<g id="edge7" class="edge">
<title>c@@@@@@@@@@@&#45;&gt;&#45;205634880</title>
<path fill="none" stroke="black" d="M54.33,-153C62.19,-153 71.43,-153 81.5,-153"/>
<polygon fill="black" stroke="black" points="81.22,-156.5 91.22,-153 81.22,-149.5 81.22,-156.5"/>
</g>
<!-- &#45;205630624 -->
<g id="node15" class="node">
<title>&#45;205630624</title>
<ellipse fill="none" stroke="black" cx="656.61" cy="-18" rx="143.88" ry="18"/>
<text text-anchor="middle" x="656.61" y="-12.57" font-family="Times New Roman,serif" font-size="14.00">&lt;data&gt; 0.379691 | &lt;grad&gt; 0.000000</text>
</g>
<!-- &#45;205630624&#45;&gt;*@@@@@@@@@@ -->
<g id="edge20" class="edge">
<title>&#45;205630624&#45;&gt;*@@@@@@@@@@</title>
<path fill="none" stroke="black" d="M750.59,-31.93C768.33,-35.51 786.61,-39.84 803.48,-45 813.6,-48.09 824.27,-52.35 833.86,-56.58"/>
<polygon fill="black" stroke="black" points="832.21,-59.67 842.76,-60.64 835.11,-53.3 832.21,-59.67"/>
</g>
<!-- c@@@@@@@@@@@@ -->
<g id="node16" class="node">
<title>c@@@@@@@@@@@@</title>
<ellipse fill="none" stroke="black" cx="446.74" cy="-18" rx="27" ry="18"/>
<text text-anchor="middle" x="446.74" y="-12.57" font-family="Times New Roman,serif" font-size="14.00">c</text>
</g>
<!-- c@@@@@@@@@@@@&#45;&gt;&#45;205630624 -->
<g id="edge8" class="edge">
<title>c@@@@@@@@@@@@&#45;&gt;&#45;205630624</title>
<path fill="none" stroke="black" d="M474.07,-18C481.93,-18 491.17,-18 501.24,-18"/>
<polygon fill="black" stroke="black" points="500.96,-21.5 510.96,-18 500.96,-14.5 500.96,-21.5"/>
</g>
<!-- &#45;205630400 -->
<g id="node17" class="node">
<title>&#45;205630400</title>
<ellipse fill="none" stroke="black" cx="236.87" cy="-99" rx="146.87" ry="18"/>
<text text-anchor="middle" x="236.87" y="-93.58" font-family="Times New Roman,serif" font-size="14.00">&lt;data&gt; &#45;0.533523 | &lt;grad&gt; 0.000000</text>
</g>
<!-- &#45;205630400&#45;&gt;*@@@@@@@@@@@@@@ -->
<g id="edge21" class="edge">
<title>&#45;205630400&#45;&gt;*@@@@@@@@@@@@@@</title>
<path fill="none" stroke="black" d="M339.68,-112.22C364.38,-115.43 389.24,-118.66 408.68,-121.19"/>
<polygon fill="black" stroke="black" points="408.17,-124.65 418.54,-122.47 409.07,-117.71 408.17,-124.65"/>
</g>
<!-- c@@@@@@@@@@@@@ -->
<g id="node18" class="node">
<title>c@@@@@@@@@@@@@</title>
<ellipse fill="none" stroke="black" cx="27" cy="-99" rx="27" ry="18"/>
<text text-anchor="middle" x="27" y="-93.58" font-family="Times New Roman,serif" font-size="14.00">c</text>
</g>
<!-- c@@@@@@@@@@@@@&#45;&gt;&#45;205630400 -->
<g id="edge9" class="edge">
<title>c@@@@@@@@@@@@@&#45;&gt;&#45;205630400</title>
<path fill="none" stroke="black" d="M54.33,-99C61.32,-99 69.4,-99 78.18,-99"/>
<polygon fill="black" stroke="black" points="78.14,-102.5 88.14,-99 78.14,-95.5 78.14,-102.5"/>
</g>
<!-- &#45;205629504 -->
<g id="node19" class="node">
<title>&#45;205629504</title>
<ellipse fill="none" stroke="black" cx="656.61" cy="-126" rx="146.87" ry="18"/>
<text text-anchor="middle" x="656.61" y="-120.58" font-family="Times New Roman,serif" font-size="14.00">&lt;data&gt; &#45;0.533523 | &lt;grad&gt; 0.000000</text>
</g>
<!-- &#45;205629504&#45;&gt;+@@@@@@@ -->
<g id="edge22" class="edge">
<title>&#45;205629504&#45;&gt;+@@@@@@@</title>
<path fill="none" stroke="black" d="M803.96,-126C812.43,-126 820.44,-126 827.72,-126"/>
<polygon fill="black" stroke="black" points="827.7,-129.5 837.7,-126 827.7,-122.5 827.7,-129.5"/>
</g>
<!-- *@@@@@@@@@@@@@@&#45;&gt;&#45;205629504 -->
<g id="edge10" class="edge">
<title>*@@@@@@@@@@@@@@&#45;&gt;&#45;205629504</title>
<path fill="none" stroke="black" d="M474.07,-126C481.06,-126 489.14,-126 497.92,-126"/>
<polygon fill="black" stroke="black" points="497.89,-129.5 507.89,-126 497.89,-122.5 497.89,-129.5"/>
</g>
<!-- &#45;205629280 -->
<g id="node21" class="node">
<title>&#45;205629280</title>
<ellipse fill="none" stroke="black" cx="2340.8" cy="-72" rx="143.88" ry="18"/>
<text text-anchor="middle" x="2340.8" y="-66.58" font-family="Times New Roman,serif" font-size="14.00">&lt;data&gt; 0.000000 | &lt;grad&gt; 1.000000</text>
</g>
<!-- ReLu@@@@@@@@@@@@ -->
<g id="node22" class="node">
<title>ReLu@@@@@@@@@@@@</title>
<ellipse fill="none" stroke="black" cx="2129.81" cy="-72" rx="31.1" ry="18"/>
<text text-anchor="middle" x="2129.81" y="-66.58" font-family="Times New Roman,serif" font-size="14.00">ReLu</text>
</g>
<!-- ReLu@@@@@@@@@@@@&#45;&gt;&#45;205629280 -->
<g id="edge11" class="edge">
<title>ReLu@@@@@@@@@@@@&#45;&gt;&#45;205629280</title>
<path fill="none" stroke="black" d="M2161.2,-72C2168.37,-72 2176.49,-72 2185.22,-72"/>
<polygon fill="black" stroke="black" points="2185.07,-75.5 2195.07,-72 2185.07,-68.5 2185.07,-75.5"/>
</g>
<!-- &#45;205627712 -->
<g id="node23" class="node">
<title>&#45;205627712</title>
<ellipse fill="none" stroke="black" cx="1915.84" cy="-72" rx="146.87" ry="18"/>
<text text-anchor="middle" x="1915.84" y="-66.58" font-family="Times New Roman,serif" font-size="14.00">&lt;data&gt; &#45;1.292906 | &lt;grad&gt; 0.000000</text>
</g>
<!-- &#45;205627712&#45;&gt;ReLu@@@@@@@@@@@@ -->
<g id="edge23" class="edge">
<title>&#45;205627712&#45;&gt;ReLu@@@@@@@@@@@@</title>
<path fill="none" stroke="black" d="M2063.2,-72C2071.63,-72 2079.66,-72 2087.03,-72"/>
<polygon fill="black" stroke="black" points="2086.87,-75.5 2096.87,-72 2086.87,-68.5 2086.87,-75.5"/>
</g>
<!-- +@@@@@@@@@@@@@@@@&#45;&gt;&#45;205627712 -->
<g id="edge12" class="edge">
<title>+@@@@@@@@@@@@@@@@&#45;&gt;&#45;205627712</title>
<path fill="none" stroke="black" d="M1733.3,-72C1740.29,-72 1748.36,-72 1757.15,-72"/>
<polygon fill="black" stroke="black" points="1757.11,-75.5 1767.11,-72 1757.11,-68.5 1757.11,-75.5"/>
</g>
</g>
</svg>
